<?xml version="1.0" encoding="UTF-8"?>
<svg width="183px" height="33px" viewBox="0 0 183 33" version="1.1" xmlns="http://www.w3.org/2000/svg" xmlns:xlink="http://www.w3.org/1999/xlink">
    <!-- Generator: Sketch 63.1 (92452) - https://sketch.com -->
    <title>Group</title>
    <desc>Created with Sketch.</desc>
    <g id="Page-1" stroke="none" stroke-width="1" fill="none" fill-rule="evenodd">
        <g id="v" transform="translate(-367.000000, -610.000000)">
            <g id="Group" transform="translate(367.000000, 610.000000)">
                <g transform="translate(0.000000, 3.000000)" fill-rule="nonzero" id="Path">
                    <path d="M14.21,15.36 C14.2134802,17.6444697 14.448007,19.9227301 14.91,22.16 C12.8260457,24.1179632 10.2032964,25.4066979 7.38,25.86 C6.40386069,26.0096769 5.41658307,25.6693653 4.74,24.95 C-0.439162472,19.3084107 -0.439162472,10.6415893 4.74,5 C5.41872673,4.27746071 6.41057017,3.93686542 7.39,4.09 C10.2795949,4.54784778 12.9578408,5.8852248 15.06,7.92 C14.4964832,10.3599208 14.2113299,12.8558509 14.21,15.36 L14.21,15.36 Z" fill="#00ABC9"></path>
                    <path d="M28.25,20.42 C28.2494315,22.2973348 28.0210965,24.1676668 27.57,25.99 C27.1317334,27.7438936 25.6631036,29.0497833 23.87,29.28 C22.0653739,29.5049877 20.2485964,29.6185362 18.43,29.62 C15.8002043,29.619019 13.1759861,29.3780194 10.59,28.9 C16.4402096,26.8495878 21.514656,23.0428799 25.12,18 C25.5403745,17.4127196 26.285933,17.1551574 26.9791707,17.3577268 C27.6724085,17.5602963 28.1619814,18.1787736 28.2,18.9 C28.23,19.37 28.25,19.9 28.25,20.42 Z" fill="#0A1837"></path>
                    <path d="M28.2500233,9.59 C28.2500233,10.12 28.2500233,10.64 28.2,11.16 C28.1658787,11.8829945 27.6777147,12.5051031 26.9835785,12.7101888 C26.2894423,12.9152745 25.5415668,12.6583593 25.12,12.07 C21.5320873,6.98767648 16.4552179,3.14421029 10.59,1.07 C13.1759861,0.591980609 15.8002043,0.350980982 18.43,0.35 C20.2485964,0.351463757 22.0653739,0.465012349 23.87,0.69 C25.6631036,0.920216735 27.1317334,2.22610642 27.57,3.98 C28.0243197,5.81532294 28.2526786,7.69928333 28.2500233,9.59 Z" fill="#CD007B"></path>
                </g>
                <g transform="translate(39.000000, 0.000000)" fill="#0A1837">
                    <path d="M69.7,16.94 C70.0870715,14.7728308 72.0099577,13.2208783 74.21,13.3 C76.3944173,13.213353 78.2961715,14.7795035 78.63,16.94 L69.7,16.94 Z M84.25,19.24 C84.25,13.24 80.39,8.66 74.25,8.66 C71.4583757,8.63584364 68.7788539,9.75696605 66.83623,11.7619504 C64.8936061,13.7669348 63.8576789,16.4805316 63.97,19.27 C63.97,25.36 68.25,29.85 74.4,29.85 C78.29,29.85 82.19,28.16 83.64,23.64 L78.64,22.47 C77.8019351,24.0704817 76.0913319,25.0181952 74.29,24.88 C71.66,24.88 69.71,23.27 69.67,20.63 L84.25,20.63 L84.25,19.24 Z" id="Shape"></path>
                    <path d="M91.5,0.62 L91.5,15.94 L93.18,15.94 L97.54,9.16 L107.77,9.16 L107.77,3.54 L112.96,3.54 L112.96,9.16 L118.31,9.16 L118.31,14.1 L113,14.1 L113,23.1 C113,23.98 113.35,24.36 114.26,24.36 L118.12,24.36 L118.12,29.88 L113.73,29.88 C109.67,29.88 107.42,27.54 107.42,23.14 L107.42,14.14 L100.81,14.14 L98.03,18.14 L98.03,18.57 L104.5,29.85 L97.85,29.85 L93.34,21.08 L91.5,21.08 L91.5,29.85 L85.92,29.85 L85.92,0.62 L91.5,0.62 Z" id="Path"></path>
                    <path d="M129.8,24.49 C128.44888,24.4879452 127.159339,23.9246738 126.239676,22.934851 C125.320013,21.9450281 124.852895,20.6176275 124.95,19.27 C124.95,16.09 127.09,14.06 129.76,14.06 C132.43,14.06 134.61,15.94 134.61,19.27 C134.61,22.11 132.7,24.49 129.8,24.49 Z M141.02,24.67 C140.791004,24.6916717 140.564119,24.6111638 140.4,24.45 C140.228701,24.2899943 140.134067,24.0643289 140.14,23.83 L140.14,9.39 L134.56,9.39 L134.56,11 L134.15,11 C132.739603,9.41199394 130.692354,8.53879448 128.57,8.62 C123.41,8.62 119.32,13.11 119.32,19.2 C119.32,25.29 123.42,29.81 128.58,29.81 C130.777449,29.9889209 132.902553,28.9778749 134.15,27.16 L134.57,27.16 C134.57,28.33 135.49,29.81 136.79,29.81 L144,29.81 L144,24.63 L141.02,24.67 Z" id="Shape"></path>
                    <path d="M10.82,14 C7.82,14 5.82,16.29 5.82,19.26 C5.72439052,20.6367313 6.21139046,21.9903246 7.16219706,22.9905731 C8.11300367,23.9908217 9.44019313,24.5457557 10.82,24.52 C13.0434252,24.6366742 15.0400138,23.1674864 15.59,21.01 L20.79,22.26 C19.53,27.26 15.54,29.86 10.67,29.86 C4.33,29.86 0.21,25.1 0.21,19.28 C0.21,13.46 4.33,8.67 10.67,8.67 C15.56,8.67 19.49,11.28 20.79,16.34 L15.63,17.64 C15.1122533,15.4267849 13.0906286,13.8969068 10.82,14 L10.82,14 Z" id="Path"></path>
                    <path d="M32.28,24.52 C30.1264301,24.6304794 28.1228296,23.4177945 27.2219392,21.4585942 C26.3210488,19.499394 26.7046528,17.1890114 28.1903419,15.6260664 C29.676031,14.0631215 31.9640187,13.5629896 33.9663342,14.3634907 C35.9686496,15.1639918 37.2812599,17.1035985 37.28,19.26 C37.3513653,20.6305289 36.8562578,21.9701427 35.9107297,22.9648381 C34.9652017,23.9595336 33.6523844,24.5218568 32.28,24.52 L32.28,24.52 Z M32.28,8.66 C26.439056,8.70959751 21.7389977,13.4750895 21.7700019,19.316161 C21.8013141,25.1572325 26.551945,29.8723114 32.3930857,29.8596184 C38.2342265,29.8468741 42.9642789,25.1111518 42.97,19.27 C43.0373141,16.4219526 41.9299881,13.6716416 39.9080004,11.6647857 C37.8860127,9.65792974 35.1274614,8.57129433 32.28,8.66 L32.28,8.66 Z" id="Shape"></path>
                    <path d="M55.5,8.66 C57.4052918,8.60852652 59.2465624,9.34974657 60.5847879,10.7069271 C61.9230133,12.0641075 62.6382644,13.9156206 62.56,15.82 L62.56,29.82 L56.99,29.82 L56.99,17.57 C57.0483427,16.6555168 56.7238168,15.7579494 56.0941334,15.0922299 C55.4644501,14.4265105 54.5863125,14.0525872 53.67,14.06 C52.7349863,14.0374664 51.8315385,14.3988455 51.17,15.06 C50.5189454,15.7362175 50.1784244,16.6527262 50.23,17.59 L50.23,29.81 L44.65,29.81 L44.65,8.8 L50.23,8.8 L50.23,11 L50.61,11 C51.749307,9.45517906 53.5822463,8.578067 55.5,8.66 L55.5,8.66 Z" id="Path"></path>
                </g>
            </g>
        </g>
    </g>
</svg>